<svg width="115" height="85" viewBox="0 0 115 85" fill="none" xmlns="http://www.w3.org/2000/svg">
<path d="M38.6419 62.309L37.885 61.8532L36.9694 63.3608L37.7265 63.8166L38.6419 62.309ZM43.8458 56.3164L44.7234 56.4251L43.8458 56.3164ZM48.3455 49.8761L49.1045 50.328L50.013 48.8165L49.254 48.3641L48.3455 49.8761ZM38.1841 63.063C37.7265 63.8166 37.7272 63.8171 37.7278 63.8176C37.7279 63.8176 37.7286 63.8179 37.7292 63.8183C37.7302 63.8188 37.7311 63.8196 37.7322 63.8201C37.7344 63.8215 37.737 63.8228 37.7398 63.8245C37.7454 63.828 37.7522 63.8316 37.7601 63.8364C37.7758 63.8452 37.7963 63.8563 37.8209 63.8694C37.8701 63.8954 37.9368 63.9285 38.0193 63.965C38.1833 64.0376 38.4143 64.1258 38.6954 64.1931C39.2558 64.3279 40.05 64.3892 40.9018 64.0492C42.643 63.3542 44.1245 61.2221 44.7234 56.4251L42.9678 56.2075C42.3874 60.8561 41.0382 62.0969 40.2435 62.414C39.8273 62.5798 39.4274 62.5569 39.1105 62.4808C38.953 62.443 38.8245 62.3936 38.7388 62.3558C38.6965 62.3368 38.6657 62.3214 38.6487 62.3125C38.6403 62.3083 38.6353 62.3051 38.634 62.3046C38.6335 62.3041 38.6338 62.3041 38.6351 62.3051C38.6357 62.3056 38.6365 62.306 38.6378 62.3068C38.6383 62.3068 38.6389 62.3073 38.6397 62.3078C38.64 62.3083 38.6405 62.3083 38.6408 62.3086C38.6413 62.309 38.6419 62.309 38.1841 63.063ZM44.7234 56.4251C45.3078 51.7461 46.5038 50.3381 47.2025 49.9419C47.5361 49.7529 47.8294 49.7485 48.0426 49.7845C48.1531 49.8035 48.2424 49.8335 48.2995 49.8572C48.3278 49.8687 48.3468 49.8779 48.3552 49.8818C48.3597 49.884 48.3609 49.885 48.3592 49.884C48.3587 49.8837 48.357 49.8828 48.3547 49.8815C48.3535 49.881 48.3522 49.8801 48.3508 49.8793C48.35 49.8788 48.349 49.8779 48.3481 49.8776C48.3478 49.8776 48.3468 49.8771 48.3468 49.8766C48.346 49.8766 48.3455 49.8761 48.7998 49.12C49.254 48.3641 49.2532 48.3638 49.2522 48.3634C49.2517 48.3634 49.2514 48.3629 49.2505 48.3624C49.2495 48.3616 49.2483 48.3611 49.247 48.3602C49.2448 48.3589 49.2421 48.3572 49.2389 48.3555C49.2327 48.3523 49.2262 48.3483 49.2181 48.3439C49.2022 48.3351 49.1819 48.3242 49.1585 48.3123C49.1112 48.288 49.0479 48.2584 48.9705 48.2269C48.817 48.1643 48.602 48.0926 48.3401 48.048C47.8089 47.9578 47.085 47.9815 46.3272 48.4109C44.8441 49.2516 43.5631 51.4414 42.9678 56.2075L44.7234 56.4251Z" fill="url(#paint0_linear_126_724)"/>
<path d="M38.6419 62.309L37.885 61.8532L36.9694 63.3608L37.7265 63.8166L38.6419 62.309ZM43.8458 56.3164L44.7234 56.4251L43.8458 56.3164ZM48.3455 49.8761L49.1045 50.328L50.013 48.8165L49.254 48.3641L48.3455 49.8761ZM38.1841 63.063C37.7265 63.8166 37.7272 63.8171 37.7278 63.8176C37.7279 63.8176 37.7286 63.8179 37.7292 63.8183C37.7302 63.8188 37.7311 63.8196 37.7322 63.8201C37.7344 63.8215 37.737 63.8228 37.7398 63.8245C37.7454 63.828 37.7522 63.8316 37.7601 63.8364C37.7758 63.8452 37.7963 63.8563 37.8209 63.8694C37.8701 63.8954 37.9368 63.9285 38.0193 63.965C38.1833 64.0376 38.4143 64.1258 38.6954 64.1931C39.2558 64.3279 40.05 64.3892 40.9018 64.0492C42.643 63.3542 44.1245 61.2221 44.7234 56.4251L42.9678 56.2075C42.3874 60.8561 41.0382 62.0969 40.2435 62.414C39.8273 62.5798 39.4274 62.5569 39.1105 62.4808C38.953 62.443 38.8245 62.3936 38.7388 62.3558C38.6965 62.3368 38.6657 62.3214 38.6487 62.3125C38.6403 62.3083 38.6353 62.3051 38.634 62.3046C38.6335 62.3041 38.6338 62.3041 38.6351 62.3051C38.6357 62.3056 38.6365 62.306 38.6378 62.3068C38.6383 62.3068 38.6389 62.3073 38.6397 62.3078C38.64 62.3083 38.6405 62.3083 38.6408 62.3086C38.6413 62.309 38.6419 62.309 38.1841 63.063ZM44.7234 56.4251C45.3078 51.7461 46.5038 50.3381 47.2025 49.9419C47.5361 49.7529 47.8294 49.7485 48.0426 49.7845C48.1531 49.8035 48.2424 49.8335 48.2995 49.8572C48.3278 49.8687 48.3468 49.8779 48.3552 49.8818C48.3597 49.884 48.3609 49.885 48.3592 49.884C48.3587 49.8837 48.357 49.8828 48.3547 49.8815C48.3535 49.881 48.3522 49.8801 48.3508 49.8793C48.35 49.8788 48.349 49.8779 48.3481 49.8776C48.3478 49.8776 48.3468 49.8771 48.3468 49.8766C48.346 49.8766 48.3455 49.8761 48.7998 49.12C49.254 48.3641 49.2532 48.3638 49.2522 48.3634C49.2517 48.3634 49.2514 48.3629 49.2505 48.3624C49.2495 48.3616 49.2483 48.3611 49.247 48.3602C49.2448 48.3589 49.2421 48.3572 49.2389 48.3555C49.2327 48.3523 49.2262 48.3483 49.2181 48.3439C49.2022 48.3351 49.1819 48.3242 49.1585 48.3123C49.1112 48.288 49.0479 48.2584 48.9705 48.2269C48.817 48.1643 48.602 48.0926 48.3401 48.048C47.8089 47.9578 47.085 47.9815 46.3272 48.4109C44.8441 49.2516 43.5631 51.4414 42.9678 56.2075L44.7234 56.4251Z" fill="url(#paint1_linear_126_724)"/>
<path d="M28.1882 31.5865C28.1882 34.3489 27.537 36.3783 26.2349 37.6748C24.9328 38.9714 22.9229 39.6197 20.2053 39.6197C17.5162 39.6197 14.657 39.4787 11.6281 39.1969V33.4891C13.8361 33.63 16.1008 33.7005 18.4219 33.7005C19.073 33.7005 19.5825 33.5174 19.9505 33.151C20.3469 32.7563 20.545 32.2348 20.545 31.5865V15.5202H15.025V9.60107H28.1882V31.5865ZM47.2942 39.1969H32.0079V33.2777H35.8296V15.5202H32.0079V9.60107H47.2942V15.5202H43.4726V33.2777H47.2942V39.1969Z" fill="url(#paint2_linear_126_724)"/>
<path d="M37.8834 73.1089H29.8158L19.6251 55.3513V73.1089H11.9819V43.5129H20.0497L30.2404 61.2705V43.5129H37.8834V73.1089ZM48.3067 73.1089H40.0264L51.2789 43.5129H59.7713L71.0235 73.1089H62.7436L60.8328 67.8239H50.2174L48.3067 73.1089ZM52.1282 62.3275H58.9221L55.525 52.3918L52.1282 62.3275ZM87.1572 73.1089H71.8711V67.1897H75.6925V49.4321H71.8711V43.5129H87.1572V49.4321H83.3357V67.1897H87.1572V73.1089ZM98.6183 67.1897H114.117V73.1089H90.9752V43.5129H98.6183V67.1897Z" fill="url(#paint3_linear_126_724)"/>
<path fill-rule="evenodd" clip-rule="evenodd" d="M19.6077 19.3783H19.6073H19.6071H19.6012L19.5725 19.3786C19.5462 19.3789 19.5054 19.3797 19.4517 19.3812C19.344 19.3842 19.1845 19.3903 18.9847 19.4028C18.5838 19.4278 18.0241 19.4777 17.3924 19.5774C16.1035 19.7807 14.6222 20.1752 13.5556 20.9031C13.033 21.2597 12.6392 21.6768 12.4003 22.1636C12.1656 22.6418 12.0527 23.2436 12.1773 24.0265C12.4342 25.6408 13.699 27.9959 16.9258 31.3178C18.6476 33.0903 19.6057 34.8652 19.8971 36.6531C20.1888 38.4441 19.7946 40.1471 18.9945 41.743C17.4232 44.8774 14.1905 47.7683 11.0558 50.4332C10.6898 50.7446 10.3253 51.0525 9.96395 51.3576C7.14845 53.7373 4.53078 55.949 3.01925 58.129C2.17962 59.3402 1.75281 60.4461 1.76972 61.4837C1.7862 62.4948 2.22711 63.5857 3.4251 64.7789C4.10412 65.455 4.8687 65.6821 5.80281 65.6834C6.62427 65.6844 7.5003 65.5148 8.52031 65.317C8.73849 65.2748 8.96332 65.2312 9.19557 65.1876C11.7581 64.7089 14.8756 64.3384 17.8864 67.0853C20.4024 69.3808 22.6385 69.8511 24.1922 69.8026C24.982 69.7779 25.6196 69.6181 26.0538 69.468C26.2706 69.3931 26.4352 69.3213 26.5409 69.2706C26.5937 69.245 26.6316 69.2258 26.6537 69.2139C26.6591 69.2108 26.6635 69.2085 26.6668 69.2063C26.6706 69.2046 26.6732 69.2029 26.6748 69.2019L26.6762 69.2011H26.6764L27.43 68.751L28.3401 70.2616L27.5814 70.7148L27.1265 69.9595C27.5814 70.7148 27.581 70.7152 27.5805 70.7152L27.5794 70.7161L27.5767 70.7174L27.5702 70.7213L27.5521 70.7319C27.538 70.7398 27.5193 70.7504 27.4963 70.7627C27.4501 70.7874 27.3867 70.8205 27.3067 70.8588C27.147 70.9349 26.9203 71.0332 26.634 71.1323C26.062 71.3301 25.2464 71.5321 24.2476 71.5634C22.2239 71.6265 19.5411 70.9844 16.6912 68.3841C14.3359 66.2353 11.978 66.4599 9.5221 66.9192C9.32323 66.9562 9.12086 66.9959 8.91604 67.0355C7.89392 67.2351 6.81097 67.446 5.80055 67.4452C4.52467 67.4433 3.26426 67.1099 2.17406 66.0244C0.734373 64.5907 0.0263612 63.0859 0.000721329 61.5122C-0.0244896 59.9652 0.613388 58.4981 1.5633 57.128C3.21884 54.7405 6.03869 52.3605 8.81489 50.0175C9.18059 49.7088 9.54549 49.4009 9.90685 49.0936C13.0946 46.3832 16.0283 43.7155 17.4116 40.9562C18.0888 39.6053 18.3692 38.2775 18.1507 36.9351C17.9314 35.5895 17.1943 34.1282 15.6541 32.5426C12.3567 29.1479 10.7742 26.4659 10.4298 24.3022C10.2538 23.1962 10.4017 22.2238 10.8106 21.3904C11.2154 20.5653 11.8478 19.9329 12.5554 19.45C13.9492 18.4988 15.7437 18.0539 17.1157 17.8374C17.8144 17.7271 18.4312 17.6722 18.8744 17.6447C19.0963 17.6308 19.2759 17.6238 19.4017 17.6202C19.4645 17.6184 19.514 17.6176 19.5487 17.6172C19.5662 17.6169 19.5798 17.6167 19.5897 17.6167H19.6014H19.605H19.6063C19.6068 17.6167 19.6073 17.6167 19.6073 18.4975V17.6167H20.4919V19.3783H19.6077Z" fill="url(#paint4_linear_126_724)"/>
<path fill-rule="evenodd" clip-rule="evenodd" d="M19.6077 19.3783H19.6073H19.6071H19.6012L19.5725 19.3786C19.5462 19.3789 19.5054 19.3797 19.4517 19.3812C19.344 19.3842 19.1845 19.3903 18.9847 19.4028C18.5838 19.4278 18.0241 19.4777 17.3924 19.5774C16.1035 19.7807 14.6222 20.1752 13.5556 20.9031C13.033 21.2597 12.6392 21.6768 12.4003 22.1636C12.1656 22.6418 12.0527 23.2436 12.1773 24.0265C12.4342 25.6408 13.699 27.9959 16.9258 31.3178C18.6476 33.0903 19.6057 34.8652 19.8971 36.6531C20.1888 38.4441 19.7946 40.1471 18.9945 41.743C17.4232 44.8774 14.1905 47.7683 11.0558 50.4332C10.6898 50.7446 10.3253 51.0525 9.96395 51.3576C7.14845 53.7373 4.53078 55.949 3.01925 58.129C2.17962 59.3402 1.75281 60.4461 1.76972 61.4837C1.7862 62.4948 2.22711 63.5857 3.4251 64.7789C4.10412 65.455 4.8687 65.6821 5.80281 65.6834C6.62427 65.6844 7.5003 65.5148 8.52031 65.317C8.73849 65.2748 8.96332 65.2312 9.19557 65.1876C11.7581 64.7089 14.8756 64.3384 17.8864 67.0853C20.4024 69.3808 22.6385 69.8511 24.1922 69.8026C24.982 69.7779 25.6196 69.6181 26.0538 69.468C26.2706 69.3931 26.4352 69.3213 26.5409 69.2706C26.5937 69.245 26.6316 69.2258 26.6537 69.2139C26.6591 69.2108 26.6635 69.2085 26.6668 69.2063C26.6706 69.2046 26.6732 69.2029 26.6748 69.2019L26.6762 69.2011H26.6764L27.43 68.751L28.3401 70.2616L27.5814 70.7148L27.1265 69.9595C27.5814 70.7148 27.581 70.7152 27.5805 70.7152L27.5794 70.7161L27.5767 70.7174L27.5702 70.7213L27.5521 70.7319C27.538 70.7398 27.5193 70.7504 27.4963 70.7627C27.4501 70.7874 27.3867 70.8205 27.3067 70.8588C27.147 70.9349 26.9203 71.0332 26.634 71.1323C26.062 71.3301 25.2464 71.5321 24.2476 71.5634C22.2239 71.6265 19.5411 70.9844 16.6912 68.3841C14.3359 66.2353 11.978 66.4599 9.5221 66.9192C9.32323 66.9562 9.12086 66.9959 8.91604 67.0355C7.89392 67.2351 6.81097 67.446 5.80055 67.4452C4.52467 67.4433 3.26426 67.1099 2.17406 66.0244C0.734373 64.5907 0.0263612 63.0859 0.000721329 61.5122C-0.0244896 59.9652 0.613388 58.4981 1.5633 57.128C3.21884 54.7405 6.03869 52.3605 8.81489 50.0175C9.18059 49.7088 9.54549 49.4009 9.90685 49.0936C13.0946 46.3832 16.0283 43.7155 17.4116 40.9562C18.0888 39.6053 18.3692 38.2775 18.1507 36.9351C17.9314 35.5895 17.1943 34.1282 15.6541 32.5426C12.3567 29.1479 10.7742 26.4659 10.4298 24.3022C10.2538 23.1962 10.4017 22.2238 10.8106 21.3904C11.2154 20.5653 11.8478 19.9329 12.5554 19.45C13.9492 18.4988 15.7437 18.0539 17.1157 17.8374C17.8144 17.7271 18.4312 17.6722 18.8744 17.6447C19.0963 17.6308 19.2759 17.6238 19.4017 17.6202C19.4645 17.6184 19.514 17.6176 19.5487 17.6172C19.5662 17.6169 19.5798 17.6167 19.5897 17.6167H19.6014H19.605H19.6063C19.6068 17.6167 19.6073 17.6167 19.6073 18.4975V17.6167H20.4919V19.3783H19.6077Z" fill="url(#paint5_linear_126_724)"/>
<path d="M51.6174 30.7797C53.5281 28.4966 57.3496 28.4966 59.2604 30.7797C60.8528 32.6823 60.8528 35.219 59.2604 37.1217C57.3496 39.4049 53.5281 39.4049 51.6174 37.1217C50.025 35.219 50.025 32.6823 51.6174 30.7797Z" fill="url(#paint6_linear_126_724)"/>
<defs>
<linearGradient id="paint0_linear_126_724" x1="43.4919" y1="48.8862" x2="43.4919" y2="63.4197" gradientUnits="userSpaceOnUse">
<stop stop-color="#7C5BFF"/>
<stop offset="1" stop-color="#FF40A7"/>
</linearGradient>
<linearGradient id="paint1_linear_126_724" x1="43.4919" y1="48.8862" x2="43.4919" y2="63.4197" gradientUnits="userSpaceOnUse">
<stop stop-color="#7C5BFF"/>
<stop offset="1" stop-color="#FF40A7"/>
</linearGradient>
<linearGradient id="paint2_linear_126_724" x1="30.0015" y1="4.24809e-05" x2="30.0015" y2="51.0882" gradientUnits="userSpaceOnUse">
<stop stop-color="#FFA2E0"/>
<stop offset="0.482292" stop-color="#FF52C4"/>
<stop offset="0.982292" stop-color="#FF93DB"/>
</linearGradient>
<linearGradient id="paint3_linear_126_724" x1="64.5969" y1="34.0471" x2="64.5969" y2="84.4158" gradientUnits="userSpaceOnUse">
<stop stop-color="#FFA2E0"/>
<stop offset="0.482292" stop-color="#FF52C4"/>
<stop offset="0.982292" stop-color="#FF93DB"/>
</linearGradient>
<linearGradient id="paint4_linear_126_724" x1="14.17" y1="17.8368" x2="14.17" y2="71.7876" gradientUnits="userSpaceOnUse">
<stop stop-color="#3300FF"/>
<stop offset="1" stop-color="#FF008A"/>
</linearGradient>
<linearGradient id="paint5_linear_126_724" x1="14.17" y1="17.8368" x2="14.17" y2="71.7876" gradientUnits="userSpaceOnUse">
<stop stop-color="#3300FF"/>
<stop offset="1" stop-color="#FF008A"/>
</linearGradient>
<linearGradient id="paint6_linear_126_724" x1="55.5908" y1="25.9436" x2="55.5908" y2="42.5654" gradientUnits="userSpaceOnUse">
<stop stop-color="#FFA2E0"/>
<stop offset="0.482292" stop-color="#FF52C4"/>
<stop offset="0.982292" stop-color="#FF93DB"/>
</linearGradient>
</defs>
</svg>
